<svg id="Layer_2" data-name="Layer 2" xmlns="http://www.w3.org/2000/svg" viewBox="0 0 216.6 430"><path d="M75.3,105.7c-1-11.5-1.7-22.1-2.7-32.7-.7-7.4-1.5-14.9-2.6-22.3-1.5-10-6.3-18.2-14.6-24-5.9-4.1-12.1-7.8-17.8-12.1-2.6-1.9-4.4-5-6.5-7.6,2.9-1.7,5.7-4.3,8.7-4.7A187.4,187.4,0,0,1,65.7,0c26.8-.1,53.6,0,80.2,4.1,15.4,2.4,26.3,11.5,35.5,23.3,3.9,5,2.1,8.8-4.3,9.7s-10.9.8-16.4,1c-9.5.4-12,2.9-12.9,12.2-1.5,17-3.2,34.1-4.8,51.1-.6,5.6.9,9,6.3,10.3a257.2,257.2,0,0,0,28.8,5.7,46.9,46.9,0,0,1,25.2,11.8c3.6,3.1,2.6,7.3-2.2,8.2a152.2,152.2,0,0,1-25.2,2.2c-9.7,0-19.6-1.8-29.3-1.3-17.1.8-26.8,14.4-23.3,31.3,1.1,5.6,5,8.3,9.9,9.3,8.3,1.8,16.7,3,25.1,4.3s18.8,2.4,28.2,4.1c14,2.5,19.7,8.1,21.4,22.3,2.1,16.5,4,33.1,4.8,49.7,1.8,34.8,3.4,69.6,3.8,104.4.3,18.2-2,36.5-3.6,54.7a17.5,17.5,0,0,1-3.9,8.9c-3.6,4.2-6.8,3.4-8.1-1.9a100.9,100.9,0,0,1-2.7-17.2q-3.9-51.9-7.3-103.7c-.2-3.6-1.2-6.1-4.1-8.5-21.4-17.3-42.4-35-59.5-56.8-7.4-9.4-14.3-19.2-21.8-29.4-3.3,5.4-6.2,10.6-9.4,15.5s-7.3,11.1-11.2,16.5c-1.2,1.8-2.8,3.7-4.6,4.4-4.6,1.8-6.2,5.7-8.3,9.5-5.2,9.2-10.1,18.7-16.2,27.3-9.1,13.1-13.1,27.8-15.8,43.2s-5.6,32.1-9,48a47.8,47.8,0,0,1-6.2,14.1c-1.4,2.2-4.6,3.2-7,4.8-1.2-2.4-3.4-4.7-3.5-7.2-.5-14.1-1-28.3-.7-42.4.9-40.8,2.4-81.6,3.3-122.4a87.6,87.6,0,0,0-2-19.8c-.6-2.8-3.6-5.2-5.8-7.5s-5.4-4.1-7.1-6.7c-3.9-5.8-1.9-10.6,5-11.7a151.7,151.7,0,0,1,21.3-1.7c19.7-.3,39.3-.2,59-.5,9.5-.2,10.3-1.6,7.8-10.8a45.6,45.6,0,0,0-1.8-5.2c-6.1-16.5-11.7-20.6-29.3-20.9-13.1-.2-25.9-2.4-37.6-8.4a43.3,43.3,0,0,1-11.9-8.8c-4-4.4-2.6-9.4,3.2-10.7A98.9,98.9,0,0,1,38,105.9C50.1,105.5,62.2,105.7,75.3,105.7Zm36.1-73.6C104,32,100.2,35.7,99,43.8c-2.7,18,2.3,34.6,10.1,50.5,2,4.1,5,4.3,6.9,0,2.9-6.6,5.7-13.6,6.5-20.6,1.1-9.5,3.5-17.8,10.1-24.9,3.4-3.6,2.9-6-1.1-9.1A40.1,40.1,0,0,0,111.4,32.1Zm70.3,226.3c.6-7.3,1.8-15,1.7-22.7-.2-10.1-5.7-17.1-15.1-21s-16.5-5.2-25.3-4.4c-1.7.1-3.2,1.2-4.8,1.8.6,1.5.8,3.3,1.8,4.4,5.3,6,10.6,12.1,16.2,17.7C164.5,242.3,173.1,250.2,181.7,258.4Zm-139-10.2,2,.5c5.8-7.3,11.8-14.4,17.5-21.7,2.2-2.9,4.5-5.9,5.8-9.3.8-1.9.7-5.3-.5-6.7a15.5,15.5,0,0,0-13.9-5.2c-5.4.8-8,5.2-8.6,9.9C43.9,226.5,43.4,237.4,42.7,248.2Z"/></svg>